# Blender 4.2.0
# www.blender.org
mtllib health.mtl
o Cube
v 0.513564 0.513564 -0.513564
v 0.513564 -0.513564 -0.513564
v 0.513564 0.513564 0.513564
v 0.513564 -0.513564 0.513564
v -0.513564 0.513564 -0.513564
v -0.513564 -0.513564 -0.513564
v -0.513564 0.513564 0.513564
v -0.513564 -0.513564 0.513564
v 0.513564 1.469111 -0.513564
v 0.513564 1.469111 0.513564
v -0.513564 1.469111 -0.513564
v -0.513564 1.469111 0.513564
v 1.329291 0.513564 -0.513564
v 1.329291 -0.513564 -0.513564
v 1.329291 0.513564 0.513564
v 1.329291 -0.513564 0.513564
v -1.328675 0.513564 -0.513564
v -1.328675 -0.513564 -0.513564
v -1.328675 0.513564 0.513564
v -1.328675 -0.513564 0.513564
v 0.513564 -1.297735 -0.513564
v 0.513564 -1.297735 0.513564
v -0.513564 -1.297735 -0.513564
v -0.513564 -1.297735 0.513564
vn -1.0000 -0.0000 -0.0000
vn -0.0000 -0.0000 1.0000
vn -0.0000 -1.0000 -0.0000
vn -0.0000 -0.0000 -1.0000
vn -0.0000 1.0000 -0.0000
vn 1.0000 -0.0000 -0.0000
vt 0.625000 0.250000
vt 0.625000 0.000000
vt 0.375000 0.750000
vt 0.625000 0.750000
vt 0.625000 1.000000
vt 0.375000 1.000000
vt 0.125000 0.500000
vt 0.125000 0.750000
vt 0.375000 0.250000
vt 0.625000 0.500000
vt 0.375000 0.500000
vt 0.875000 0.500000
vt 0.875000 0.750000
vt 0.375000 0.000000
s 0
usemtl Material
f 5/1/1 7/2/1 12/2/1 11/1/1
f 4/3/2 3/4/2 7/5/2 8/6/2
f 6/7/3 8/8/3 20/8/3 18/7/3
f 4/3/2 8/6/2 24/6/2 22/3/2
f 3/4/2 4/3/2 16/3/2 15/4/2
f 6/9/4 5/1/4 1/10/4 2/11/4
f 9/10/5 11/12/5 12/13/5 10/4/5
f 3/4/6 1/10/6 9/10/6 10/4/6
f 1/10/4 5/1/4 11/1/4 9/10/4
f 7/5/2 3/4/2 10/4/2 12/5/2
f 14/11/6 13/10/6 15/4/6 16/3/6
f 2/11/4 1/10/4 13/10/4 14/11/4
f 4/3/3 2/11/3 14/11/3 16/3/3
f 1/10/5 3/4/5 15/4/5 13/10/5
f 20/14/1 19/2/1 17/1/1 18/9/1
f 7/2/5 5/1/5 17/1/5 19/2/5
f 5/1/4 6/9/4 18/9/4 17/1/4
f 8/6/2 7/5/2 19/5/2 20/6/2
f 23/7/3 21/11/3 22/3/3 24/8/3
f 8/8/1 6/7/1 23/7/1 24/8/1
f 2/11/6 4/3/6 22/3/6 21/11/6
f 6/9/4 2/11/4 21/11/4 23/9/4
